<?xml version="1.0" encoding="utf-8"?>
<!-- Generator: Adobe Illustrator 22.1.0, SVG Export Plug-In . SVG Version: 6.00 Build 0)  -->
<svg version="1.1" id="Layer_1" xmlns="http://www.w3.org/2000/svg" xmlns:xlink="http://www.w3.org/1999/xlink" x="0px" y="0px"
	 viewBox="0 0 276 41" style="enable-background:new 0 0 276 41;" xml:space="preserve">
<style type="text/css">
	.st0{enable-background:new    ;}
	.st1{fill:#FFFFFF;}
</style>
<image style="overflow:visible;enable-background:new    ;" width="276" height="41" id="Background" xlink:href="6FC9A785.jpg"  transform="matrix(1 0 0 1 0 1.682073e-05)">
</image>
<g id="Sign_in_with_Microsoft" class="st0">
	<path class="st1" d="M52.5,25.7h-5.9V15.3h5.6v1.5h-3.9v3h3.6v1.5h-3.6v3.1h4.1V25.7z"/>
	<path class="st1" d="M60.8,25.7h-1.7v-4.2c0-1.4-0.5-2.1-1.5-2.1c-0.5,0-0.9,0.2-1.3,0.6c-0.3,0.4-0.5,0.9-0.5,1.5v4.2h-1.7v-7.5
		h1.7v1.2h0c0.6-0.9,1.4-1.4,2.4-1.4c0.8,0,1.4,0.3,1.9,0.8s0.6,1.3,0.6,2.3V25.7z"/>
	<path class="st1" d="M66.8,25.6c-0.3,0.2-0.8,0.2-1.3,0.2c-1.4,0-2.2-0.7-2.2-2.1v-4.2H62v-1.3h1.2v-1.7l1.7-0.5v2.2h1.8v1.3H65
		v3.7c0,0.4,0.1,0.8,0.2,0.9c0.2,0.2,0.4,0.3,0.8,0.3c0.3,0,0.5-0.1,0.7-0.2V25.6z"/>
	<path class="st1" d="M72.5,19.9c-0.2-0.2-0.5-0.2-0.9-0.2c-0.5,0-0.9,0.2-1.3,0.7c-0.3,0.5-0.5,1.1-0.5,1.8v3.6h-1.7v-7.5h1.7v1.5
		h0c0.2-0.5,0.4-0.9,0.8-1.2c0.3-0.3,0.7-0.4,1.1-0.4c0.3,0,0.5,0,0.7,0.1V19.9z"/>
	<path class="st1" d="M79.4,25.7h-1.6v-1.2h0c-0.5,0.9-1.3,1.3-2.3,1.3c-0.7,0-1.3-0.2-1.7-0.6c-0.4-0.4-0.6-0.9-0.6-1.6
		c0-1.4,0.8-2.2,2.4-2.5l2.2-0.3c0-1.1-0.5-1.6-1.5-1.6c-0.9,0-1.7,0.3-2.4,0.9v-1.5c0.8-0.5,1.7-0.7,2.7-0.7c1.9,0,2.8,0.9,2.8,2.8
		V25.7z M77.8,22.1l-1.6,0.2c-0.5,0.1-0.9,0.2-1.1,0.4s-0.4,0.5-0.4,0.9c0,0.3,0.1,0.6,0.3,0.8s0.5,0.3,0.9,0.3
		c0.5,0,0.9-0.2,1.3-0.5c0.3-0.4,0.5-0.8,0.5-1.4V22.1z"/>
	<path class="st1" d="M85.8,19.9c-0.2-0.2-0.5-0.2-0.9-0.2c-0.5,0-0.9,0.2-1.3,0.7c-0.3,0.5-0.5,1.1-0.5,1.8v3.6h-1.7v-7.5h1.7v1.5
		h0c0.2-0.5,0.4-0.9,0.8-1.2c0.3-0.3,0.7-0.4,1.1-0.4c0.3,0,0.5,0,0.7,0.1V19.9z"/>
	<path class="st1" d="M96.5,25.4c-0.6,0.3-1.3,0.5-2.1,0.5c-1.1,0-2-0.3-2.7-1c-0.7-0.7-1-1.6-1-2.7c0-1.2,0.4-2.2,1.1-3
		c0.7-0.7,1.7-1.1,2.9-1.1c0.7,0,1.3,0.1,1.8,0.4V20c-0.5-0.4-1.1-0.6-1.7-0.6c-0.7,0-1.3,0.2-1.8,0.7c-0.5,0.5-0.7,1.1-0.7,1.9
		c0,0.8,0.2,1.4,0.6,1.8c0.4,0.4,1,0.7,1.7,0.7c0.6,0,1.2-0.2,1.7-0.6V25.4z"/>
	<path class="st1" d="M101.4,25.9c-1.1,0-2.1-0.3-2.8-1c-0.7-0.7-1-1.6-1-2.8c0-1.3,0.4-2.2,1.1-2.9c0.7-0.7,1.7-1.1,2.9-1.1
		c1.2,0,2.1,0.3,2.7,1s1,1.6,1,2.8c0,1.2-0.4,2.1-1.1,2.9C103.6,25.5,102.6,25.9,101.4,25.9z M101.5,19.4c-0.7,0-1.2,0.2-1.6,0.7
		c-0.4,0.5-0.6,1.1-0.6,1.9c0,0.8,0.2,1.4,0.6,1.8s0.9,0.7,1.6,0.7c0.7,0,1.2-0.2,1.5-0.7c0.4-0.4,0.5-1.1,0.5-1.9
		c0-0.8-0.2-1.5-0.5-1.9C102.7,19.7,102.2,19.4,101.5,19.4z"/>
	<path class="st1" d="M118.2,25.7h-1.7v-4.1c0-0.8-0.1-1.3-0.3-1.7c-0.2-0.3-0.6-0.5-1.1-0.5c-0.4,0-0.8,0.2-1.1,0.7
		c-0.3,0.4-0.5,1-0.5,1.6v4h-1.7v-4.2c0-1.4-0.5-2.1-1.5-2.1c-0.5,0-0.8,0.2-1.1,0.6c-0.3,0.4-0.4,1-0.4,1.6v4H107v-7.5h1.7v1.2h0
		c0.5-0.9,1.3-1.4,2.4-1.4c0.5,0,1,0.1,1.3,0.4c0.4,0.3,0.6,0.7,0.8,1.1c0.6-1,1.4-1.5,2.5-1.5c1.6,0,2.5,1,2.5,3V25.7z"/>
	<path class="st1" d="M130,25.7h-1.6v-1.2h0c-0.5,0.9-1.3,1.3-2.3,1.3c-0.7,0-1.3-0.2-1.7-0.6c-0.4-0.4-0.6-0.9-0.6-1.6
		c0-1.4,0.8-2.2,2.4-2.5l2.2-0.3c0-1.1-0.5-1.6-1.5-1.6c-0.9,0-1.7,0.3-2.4,0.9v-1.5c0.8-0.5,1.7-0.7,2.7-0.7c1.9,0,2.8,0.9,2.8,2.8
		V25.7z M128.4,22.1l-1.6,0.2c-0.5,0.1-0.9,0.2-1.1,0.4s-0.4,0.5-0.4,0.9c0,0.3,0.1,0.6,0.3,0.8s0.5,0.3,0.9,0.3
		c0.5,0,0.9-0.2,1.3-0.5c0.3-0.4,0.5-0.8,0.5-1.4V22.1z"/>
	<path class="st1" d="M141.5,25.4c-0.6,0.3-1.3,0.5-2.1,0.5c-1.1,0-2-0.3-2.7-1c-0.7-0.7-1-1.6-1-2.7c0-1.2,0.4-2.2,1.1-3
		c0.7-0.7,1.7-1.1,2.9-1.1c0.7,0,1.3,0.1,1.8,0.4V20c-0.5-0.4-1.1-0.6-1.7-0.6c-0.7,0-1.3,0.2-1.8,0.7c-0.5,0.5-0.7,1.1-0.7,1.9
		c0,0.8,0.2,1.4,0.6,1.8c0.4,0.4,1,0.7,1.7,0.7c0.6,0,1.2-0.2,1.7-0.6V25.4z"/>
	<path class="st1" d="M146.5,25.9c-1.1,0-2.1-0.3-2.8-1c-0.7-0.7-1-1.6-1-2.8c0-1.3,0.4-2.2,1.1-2.9c0.7-0.7,1.7-1.1,2.9-1.1
		c1.2,0,2.1,0.3,2.7,1c0.6,0.7,1,1.6,1,2.8c0,1.2-0.4,2.1-1.1,2.9C148.6,25.5,147.7,25.9,146.5,25.9z M146.6,19.4
		c-0.7,0-1.2,0.2-1.6,0.7c-0.4,0.5-0.6,1.1-0.6,1.9c0,0.8,0.2,1.4,0.6,1.8c0.4,0.4,0.9,0.7,1.6,0.7c0.7,0,1.2-0.2,1.5-0.7
		s0.5-1.1,0.5-1.9c0-0.8-0.2-1.5-0.5-1.9S147.2,19.4,146.6,19.4z"/>
	<path class="st1" d="M158.7,25.7H157v-4.2c0-1.4-0.5-2.1-1.5-2.1c-0.5,0-0.9,0.2-1.3,0.6c-0.3,0.4-0.5,0.9-0.5,1.5v4.2h-1.7v-7.5
		h1.7v1.2h0c0.6-0.9,1.4-1.4,2.4-1.4c0.8,0,1.4,0.3,1.9,0.8c0.4,0.5,0.6,1.3,0.6,2.3V25.7z"/>
	<path class="st1" d="M164.7,25.6c-0.3,0.2-0.8,0.2-1.3,0.2c-1.4,0-2.2-0.7-2.2-2.1v-4.2H160v-1.3h1.2v-1.7l1.7-0.5v2.2h1.8v1.3
		h-1.8v3.7c0,0.4,0.1,0.8,0.2,0.9c0.2,0.2,0.4,0.3,0.8,0.3c0.3,0,0.5-0.1,0.7-0.2V25.6z"/>
	<path class="st1" d="M171.9,25.7h-1.6v-1.2h0c-0.5,0.9-1.3,1.3-2.3,1.3c-0.7,0-1.3-0.2-1.7-0.6c-0.4-0.4-0.6-0.9-0.6-1.6
		c0-1.4,0.8-2.2,2.4-2.5l2.2-0.3c0-1.1-0.5-1.6-1.5-1.6c-0.9,0-1.7,0.3-2.4,0.9v-1.5c0.8-0.5,1.7-0.7,2.7-0.7c1.9,0,2.8,0.9,2.8,2.8
		V25.7z M170.3,22.1l-1.6,0.2c-0.5,0.1-0.8,0.2-1.1,0.4s-0.4,0.5-0.4,0.9c0,0.3,0.1,0.6,0.3,0.8s0.5,0.3,0.9,0.3
		c0.5,0,0.9-0.2,1.3-0.5c0.3-0.4,0.5-0.8,0.5-1.4V22.1z"/>
	<path class="st1" d="M184.8,25.7h-1.7v-1.3h0c-0.5,1-1.4,1.4-2.5,1.4c-0.9,0-1.7-0.3-2.2-1c-0.6-0.7-0.8-1.6-0.8-2.7
		c0-1.2,0.3-2.2,0.9-3c0.6-0.7,1.4-1.1,2.4-1.1c1,0,1.7,0.4,2.2,1.2h0v-4.6h1.7V25.7z M183.2,22.3v-1c0-0.5-0.2-1-0.5-1.3
		s-0.8-0.6-1.3-0.6c-0.6,0-1.1,0.2-1.5,0.7c-0.4,0.5-0.5,1.1-0.5,2c0,0.8,0.2,1.4,0.5,1.8c0.3,0.4,0.8,0.7,1.4,0.7
		c0.6,0,1-0.2,1.4-0.6C183,23.5,183.2,23,183.2,22.3z"/>
	<path class="st1" d="M192.7,25.7h-1.6v-1.2h0c-0.5,0.9-1.3,1.3-2.3,1.3c-0.7,0-1.3-0.2-1.7-0.6c-0.4-0.4-0.6-0.9-0.6-1.6
		c0-1.4,0.8-2.2,2.4-2.5l2.2-0.3c0-1.1-0.5-1.6-1.5-1.6c-0.9,0-1.7,0.3-2.4,0.9v-1.5c0.8-0.5,1.7-0.7,2.7-0.7c1.9,0,2.8,0.9,2.8,2.8
		V25.7z M191.1,22.1l-1.6,0.2c-0.5,0.1-0.9,0.2-1.1,0.4c-0.2,0.2-0.4,0.5-0.4,0.9c0,0.3,0.1,0.6,0.3,0.8c0.2,0.2,0.5,0.3,0.9,0.3
		c0.5,0,0.9-0.2,1.3-0.5s0.5-0.8,0.5-1.4V22.1z"/>
	<path class="st1" d="M210.3,25.7h-1.7V19c0-0.6,0-1.2,0.1-2h0c-0.1,0.5-0.2,0.8-0.3,1l-3.1,7.8h-1.2l-3.1-7.7
		c-0.1-0.2-0.2-0.6-0.3-1h0c0,0.4,0.1,1.1,0.1,2v6.7h-1.6V15.3h2.4l2.7,6.9c0.2,0.5,0.3,0.9,0.4,1.2h0c0.2-0.5,0.3-1,0.4-1.2
		l2.8-6.9h2.3V25.7z"/>
	<path class="st1" d="M213.5,16.7c-0.3,0-0.5-0.1-0.7-0.3c-0.2-0.2-0.3-0.4-0.3-0.7s0.1-0.5,0.3-0.7c0.2-0.2,0.4-0.3,0.7-0.3
		c0.3,0,0.5,0.1,0.7,0.3c0.2,0.2,0.3,0.4,0.3,0.7c0,0.3-0.1,0.5-0.3,0.7C214.1,16.6,213.8,16.7,213.5,16.7z M214.4,25.7h-1.7v-7.5
		h1.7V25.7z"/>
	<path class="st1" d="M221.9,25.4c-0.6,0.3-1.3,0.5-2.1,0.5c-1.1,0-2-0.3-2.7-1c-0.7-0.7-1-1.6-1-2.7c0-1.2,0.4-2.2,1.1-3
		c0.7-0.7,1.7-1.1,2.9-1.1c0.7,0,1.3,0.1,1.8,0.4V20c-0.5-0.4-1.1-0.6-1.7-0.6c-0.7,0-1.3,0.2-1.8,0.7c-0.5,0.5-0.7,1.1-0.7,1.9
		c0,0.8,0.2,1.4,0.6,1.8c0.4,0.4,1,0.7,1.7,0.7c0.6,0,1.2-0.2,1.7-0.6V25.4z"/>
	<path class="st1" d="M227.9,19.9c-0.2-0.2-0.5-0.2-0.9-0.2c-0.5,0-0.9,0.2-1.3,0.7s-0.5,1.1-0.5,1.8v3.6h-1.7v-7.5h1.7v1.5h0
		c0.2-0.5,0.4-0.9,0.8-1.2c0.3-0.3,0.7-0.4,1.1-0.4c0.3,0,0.5,0,0.7,0.1V19.9z"/>
	<path class="st1" d="M232.3,25.9c-1.1,0-2.1-0.3-2.8-1c-0.7-0.7-1-1.6-1-2.8c0-1.3,0.4-2.2,1.1-2.9c0.7-0.7,1.7-1.1,2.9-1.1
		c1.2,0,2.1,0.3,2.7,1s1,1.6,1,2.8c0,1.2-0.4,2.1-1.1,2.9C234.4,25.5,233.4,25.9,232.3,25.9z M232.3,19.4c-0.7,0-1.2,0.2-1.6,0.7
		c-0.4,0.5-0.6,1.1-0.6,1.9c0,0.8,0.2,1.4,0.6,1.8s0.9,0.7,1.6,0.7c0.7,0,1.2-0.2,1.5-0.7c0.4-0.4,0.5-1.1,0.5-1.9
		c0-0.8-0.2-1.5-0.5-1.9C233.5,19.7,233,19.4,232.3,19.4z"/>
	<path class="st1" d="M237.4,25.5v-1.6c0.6,0.5,1.3,0.7,2.1,0.7c1,0,1.5-0.3,1.5-0.9c0-0.2,0-0.3-0.1-0.4c-0.1-0.1-0.2-0.2-0.4-0.3
		c-0.1-0.1-0.3-0.2-0.5-0.2s-0.4-0.2-0.7-0.2c-0.3-0.1-0.6-0.3-0.8-0.4c-0.2-0.1-0.4-0.3-0.6-0.5c-0.2-0.2-0.3-0.4-0.4-0.6
		c-0.1-0.2-0.1-0.5-0.1-0.8c0-0.4,0.1-0.7,0.3-0.9c0.2-0.3,0.4-0.5,0.7-0.7c0.3-0.2,0.6-0.3,1-0.4c0.4-0.1,0.7-0.1,1.1-0.1
		c0.7,0,1.3,0.1,1.8,0.3v1.5c-0.5-0.4-1.1-0.5-1.8-0.5c-0.2,0-0.4,0-0.6,0.1c-0.2,0-0.3,0.1-0.4,0.2s-0.2,0.2-0.3,0.3
		c-0.1,0.1-0.1,0.2-0.1,0.4c0,0.2,0,0.3,0.1,0.4c0.1,0.1,0.2,0.2,0.3,0.3s0.3,0.2,0.5,0.2s0.4,0.1,0.6,0.2c0.3,0.1,0.6,0.3,0.9,0.4
		c0.3,0.1,0.5,0.3,0.7,0.5s0.3,0.4,0.4,0.6c0.1,0.2,0.1,0.5,0.1,0.8c0,0.4-0.1,0.7-0.3,1c-0.2,0.3-0.4,0.5-0.7,0.7s-0.6,0.3-1,0.4
		s-0.8,0.1-1.2,0.1C238.7,25.9,238,25.8,237.4,25.5z"/>
	<path class="st1" d="M247.6,25.9c-1.1,0-2.1-0.3-2.8-1c-0.7-0.7-1-1.6-1-2.8c0-1.3,0.4-2.2,1.1-2.9c0.7-0.7,1.7-1.1,2.9-1.1
		c1.2,0,2.1,0.3,2.7,1c0.6,0.7,1,1.6,1,2.8c0,1.2-0.4,2.1-1.1,2.9C249.7,25.5,248.8,25.9,247.6,25.9z M247.7,19.4
		c-0.7,0-1.2,0.2-1.6,0.7c-0.4,0.5-0.6,1.1-0.6,1.9c0,0.8,0.2,1.4,0.6,1.8c0.4,0.4,0.9,0.7,1.6,0.7c0.7,0,1.2-0.2,1.5-0.7
		s0.5-1.1,0.5-1.9c0-0.8-0.2-1.5-0.5-1.9S248.3,19.4,247.7,19.4z"/>
	<path class="st1" d="M257.1,16.1c-0.2-0.1-0.5-0.2-0.8-0.2c-0.8,0-1.2,0.5-1.2,1.4v1h1.7v1.3h-1.7v6.1h-1.7v-6.1h-1.3v-1.3h1.3
		v-1.2c0-0.8,0.3-1.4,0.8-1.9s1.2-0.7,1.9-0.7c0.4,0,0.7,0,1,0.1V16.1z"/>
	<path class="st1" d="M262.3,25.6c-0.3,0.2-0.8,0.2-1.3,0.2c-1.4,0-2.2-0.7-2.2-2.1v-4.2h-1.2v-1.3h1.2v-1.7l1.7-0.5v2.2h1.8v1.3
		h-1.8v3.7c0,0.4,0.1,0.8,0.2,0.9c0.2,0.2,0.4,0.3,0.8,0.3c0.3,0,0.5-0.1,0.7-0.2V25.6z"/>
</g>
</svg>
