<?xml version="1.0" encoding="utf-8"?>
<!-- Generator: Adobe Illustrator 22.1.0, SVG Export Plug-In . SVG Version: 6.00 Build 0)  -->
<svg version="1.1" xmlns="http://www.w3.org/2000/svg" xmlns:xlink="http://www.w3.org/1999/xlink" x="0px" y="0px"
	 viewBox="0 0 104 41" style="enable-background:new 0 0 104 41;" xml:space="preserve">
<style type="text/css">
	.st0{fill:#FFFFFF;}
	.st1{fill:#8C8C8C;}
	.st2{fill:#F25022;}
	.st3{fill:#00A4EF;}
	.st4{fill:#7FBA00;}
	.st5{fill:#FFB900;}
	.st6{fill:#5E5E5E;}
</style>
<g id="Layer_1">
	<g id="Layer_1_1_">
		<title>MS-SymbolLockup</title>
		<rect class="st0" width="104" height="41"/>
		<path class="st1" d="M103,1v39H1V1H103 M104,0H0v41h104V0z"/>
		<rect x="13" y="11" class="st2" width="9" height="9"/>
		<rect x="13" y="21" class="st3" width="9" height="9"/>
		<rect x="23" y="11" class="st4" width="9" height="9"/>
		<rect x="23" y="21" class="st5" width="9" height="9"/>
	</g>
</g>
<g id="Layer_2">
	<g>
		<path class="st6" d="M52.1,25.5h-5.9V15h5.7v1.5H48v3h3.6v1.5H48V24h4.2V25.5z"/>
		<path class="st6" d="M60.5,25.5h-1.7v-4.2c0-1.4-0.5-2.1-1.5-2.1c-0.5,0-0.9,0.2-1.3,0.6c-0.3,0.4-0.5,0.9-0.5,1.5v4.3h-1.7V18
			h1.7v1.2h0c0.6-0.9,1.4-1.4,2.4-1.4c0.8,0,1.4,0.3,1.9,0.8s0.6,1.3,0.6,2.3V25.5z"/>
		<path class="st6" d="M66.5,25.4c-0.3,0.2-0.8,0.2-1.3,0.2c-1.5,0-2.2-0.7-2.2-2.1v-4.2h-1.3V18H63v-1.7l1.7-0.5V18h1.8v1.3h-1.8
			v3.7c0,0.4,0.1,0.8,0.2,1c0.2,0.2,0.4,0.3,0.8,0.3c0.3,0,0.5-0.1,0.7-0.2V25.4z"/>
		<path class="st6" d="M72.3,19.6c-0.2-0.2-0.5-0.2-0.9-0.2c-0.5,0-0.9,0.2-1.3,0.7s-0.5,1.1-0.5,1.9v3.6H68V18h1.7v1.5h0
			c0.2-0.5,0.4-0.9,0.8-1.2c0.3-0.3,0.7-0.4,1.2-0.4c0.3,0,0.5,0,0.7,0.1V19.6z"/>
		<path class="st6" d="M79.3,25.5h-1.6v-1.2h0c-0.5,0.9-1.3,1.3-2.3,1.3c-0.7,0-1.3-0.2-1.7-0.6c-0.4-0.4-0.6-0.9-0.6-1.6
			c0-1.4,0.8-2.2,2.4-2.5l2.2-0.3c0-1.1-0.5-1.6-1.5-1.6c-0.9,0-1.7,0.3-2.4,0.9v-1.5c0.8-0.5,1.7-0.7,2.7-0.7
			c1.9,0,2.8,0.9,2.8,2.8V25.5z M77.6,21.8L76.1,22c-0.5,0.1-0.9,0.2-1.1,0.4c-0.2,0.2-0.4,0.5-0.4,0.9c0,0.3,0.1,0.6,0.3,0.8
			c0.2,0.2,0.5,0.3,0.9,0.3c0.5,0,0.9-0.2,1.3-0.5c0.3-0.4,0.5-0.8,0.5-1.4V21.8z"/>
		<path class="st6" d="M85.7,19.6c-0.2-0.2-0.5-0.2-0.9-0.2c-0.5,0-0.9,0.2-1.3,0.7S83,21.1,83,21.9v3.6h-1.7V18H83v1.5h0
			c0.2-0.5,0.4-0.9,0.8-1.2c0.3-0.3,0.7-0.4,1.2-0.4c0.3,0,0.5,0,0.7,0.1V19.6z"/>
	</g>
</g>
</svg>
