<svg xmlns="http://www.w3.org/2000/svg" width="104" height="41" viewBox="0 0 104 41"><title>OJ103847487</title><rect width="104" height="41" fill="#fff"/><path d="M103,1V40H1V1H103m1-1H0V41H104Z" fill="#8c8c8c"/><rect x="13" y="11" width="9" height="9" fill="#f25022"/><rect x="13" y="21" width="9" height="9" fill="#00a4ef"/><rect x="23" y="11" width="9" height="9" fill="#7fba00"/><rect x="23" y="21" width="9" height="9" fill="#ffb900"/><path d="M52.1,25.5H46.2V15h5.7v1.5H48v2.9h3.6v1.5H48V24h4.1Z" fill="#5e5e5e"/><path d="M60.5,25.5H58.8V21.3q0-2.1-1.5-2.1a1.6,1.6,0,0,0-1.3.6,2,2,0,0,0-.5,1.4v4.3H53.8V18h1.7v1.2h0A2.9,2.9,0,0,1,58,17.8a2.2,2.2,0,0,1,1.8.8,3.2,3.2,0,0,1,.7,2.3Z" fill="#5e5e5e"/><path d="M66.5,25.4a2.5,2.5,0,0,1-1.3.3c-1.5,0-2.2-.7-2.2-2.1V19.3H61.7V18H63V16.3l1.7-.5V18h1.8v1.3H64.7v3.8a2,2,0,0,0,.2.9,1.1,1.1,0,0,0,.8.3l.8-.2Z" fill="#5e5e5e"/><path d="M72.3,19.6l-.9-.2a1.3,1.3,0,0,0-1.2.7,2.4,2.4,0,0,0-.5,1.8v3.6H68V18h1.7v1.5h0a2.5,2.5,0,0,1,.8-1.2,1.5,1.5,0,0,1,1.1-.4h.7Z" fill="#5e5e5e"/><path d="M79.3,25.5H77.6V24.3h0a2.5,2.5,0,0,1-2.3,1.4,2.4,2.4,0,0,1-1.7-.6,2.3,2.3,0,0,1-.6-1.6A2.4,2.4,0,0,1,75.4,21l2.2-.3c0-1.1-.5-1.6-1.5-1.6a3.6,3.6,0,0,0-2.4.9V18.5a6,6,0,0,1,2.7-.7,2.6,2.6,0,0,1,2.9,2.8Zm-1.7-3.7-1.5.2-1.2.4a1.2,1.2,0,0,0-.3.9,1.1,1.1,0,0,0,.3.8,1.4,1.4,0,0,0,.9.3,1.6,1.6,0,0,0,1.3-.6,1.5,1.5,0,0,0,.5-1.3Z" fill="#5e5e5e"/><path d="M85.7,19.6l-.9-.2a1.6,1.6,0,0,0-1.3.7,3,3,0,0,0-.5,1.8v3.6H81.3V18H83v1.5h.1a2.4,2.4,0,0,1,.7-1.2,1.9,1.9,0,0,1,1.2-.4h.7Z" fill="#5e5e5e"/></svg>